HIERARCHY
ROOT hip
{
  OFFSET 0 0 0
  CHANNELS 6 Xposition Yposition Zposition Zrotation Yrotation Xrotation
  JOINT abdomen
  {
    OFFSET 0 20.6881 -0.73152
    CHANNELS 3 Zrotation Xrotation Yrotation
    JOINT chest
    {
      OFFSET 0 11.7043 -0.48768
      CHANNELS 3 Zrotation Xrotation Yrotation
      JOINT neck
      {
        OFFSET 0 22.1894 -2.19456
        CHANNELS 3 Zrotation Xrotation Yrotation
        JOINT head
        {
          OFFSET -0.24384 7.07133 1.2192
          CHANNELS 3 Zrotation Xrotation Yrotation
          JOINT leftEye
          {
            OFFSET 4.14528 8.04674 8.04672
            CHANNELS 3 Zrotation Xrotation Yrotation
            End Site
            {
              OFFSET 1 0 0
            }
          }
          JOINT rightEye
          {
            OFFSET -3.6576 8.04674 8.04672
            CHANNELS 3 Zrotation Xrotation Yrotation
            End Site
            {
              OFFSET 1 0 0
            }
          }
        }
      }
      JOINT rCollar
      {
        OFFSET -2.68224 19.2634 -4.8768
        CHANNELS 3 Zrotation Xrotation Yrotation
        JOINT rShldr
        {
          OFFSET -8.77824 -1.95073 1.46304
          CHANNELS 3 Zrotation Xrotation Yrotation
          JOINT rForeArm
          {
            OFFSET -28.1742 -1.7115 0.48768
            CHANNELS 3 Zrotation Xrotation Yrotation
            JOINT rHand
            {
              OFFSET -22.5879 0.773209 7.07136
              CHANNELS 3 Zrotation Xrotation Yrotation
              JOINT rThumb1
              {
                OFFSET -1.2192 -0.487915 3.41376
                CHANNELS 3 Zrotation Xrotation Yrotation
                JOINT rThumb2
                {
                  OFFSET -3.37035 -0.52449 3.41376
                  CHANNELS 3 Zrotation Xrotation Yrotation
                  End Site
                  {
                    OFFSET -1.78271 -1.18214 1.43049
                  }
                }
              }
              JOINT rIndex1
              {
                OFFSET -7.75947 0.938293 5.60832
                CHANNELS 3 Zrotation Xrotation Yrotation
                JOINT rIndex2
                {
                  OFFSET -2.54057 -0.884171 1.56538
                  CHANNELS 3 Zrotation Xrotation Yrotation
                  End Site
                  {
                    OFFSET -1.62519 -0.234802 1.16502
                  }
                }
              }
              JOINT rMid1
              {
                OFFSET -8.24714 1.18213 3.41376
                CHANNELS 3 Zrotation Xrotation Yrotation
                JOINT rMid2
                {
                  OFFSET -3.10165 -0.590103 1.0647
                  CHANNELS 3 Zrotation Xrotation Yrotation
                  End Site
                  {
                    OFFSET -2.48547 -0.328903 0.83742
                  }
                }
              }
              JOINT rRing1
              {
                OFFSET -8.82822 0.546677 1.51678
                CHANNELS 3 Zrotation Xrotation Yrotation
                JOINT rRing2
                {
                  OFFSET -2.60934 -0.819778 -0.0198488
                  CHANNELS 3 Zrotation Xrotation Yrotation
                  End Site
                  {
                    OFFSET -2.33842 -0.294052 0.168128
                  }
                }
              }
              JOINT rPinky1
              {
                OFFSET -8.27202 -0.0477905 -0.4584
                CHANNELS 3 Zrotation Xrotation Yrotation
                JOINT rPinky2
                {
                  OFFSET -1.82734 -0.647385 -0.700984
                  CHANNELS 3 Zrotation Xrotation Yrotation
                  End Site
                  {
                    OFFSET -1.69225 -0.51767 -0.607171
                  }
                }
              }
            }
          }
        }
      }
      JOINT lCollar
      {
        OFFSET 2.68224 19.2634 -4.8768
        CHANNELS 3 Zrotation Xrotation Yrotation
        JOINT lShldr
        {
          OFFSET 8.77824 -1.95073 1.46304
          CHANNELS 3 Zrotation Xrotation Yrotation
          JOINT lForeArm
          {
            OFFSET 28.1742 -1.7115 0.48768
            CHANNELS 3 Zrotation Xrotation Yrotation
            JOINT lHand
            {
              OFFSET 22.5879 0.773209 7.07136
              CHANNELS 3 Zrotation Xrotation Yrotation
              JOINT lThumb1
              {
                OFFSET 1.2192 -0.487915 3.41376
                CHANNELS 3 Zrotation Xrotation Yrotation
                JOINT lThumb2
                {
                  OFFSET 3.37035 -0.52449 3.41376
                  CHANNELS 3 Zrotation Xrotation Yrotation
                  End Site
                  {
                    OFFSET 1.78271 -1.18214 1.43049
                  }
                }
              }
              JOINT lIndex1
              {
                OFFSET 7.75947 0.938293 5.60832
                CHANNELS 3 Zrotation Xrotation Yrotation
                JOINT lIndex2
                {
                  OFFSET 2.54057 -0.884171 1.56538
                  CHANNELS 3 Zrotation Xrotation Yrotation
                  End Site
                  {
                    OFFSET 1.62519 -0.234802 1.16502
                  }
                }
              }
              JOINT lMid1
              {
                OFFSET 8.24714 1.18213 3.41376
                CHANNELS 3 Zrotation Xrotation Yrotation
                JOINT lMid2
                {
                  OFFSET 3.10165 -0.590103 1.0647
                  CHANNELS 3 Zrotation Xrotation Yrotation
                  End Site
                  {
                    OFFSET 2.48547 -0.328903 0.83742
                  }
                }
              }
              JOINT lRing1
              {
                OFFSET 8.82822 0.546677 1.51678
                CHANNELS 3 Zrotation Xrotation Yrotation
                JOINT lRing2
                {
                  OFFSET 2.60934 -0.819778 -0.0198488
                  CHANNELS 3 Zrotation Xrotation Yrotation
                  End Site
                  {
                    OFFSET 2.33842 -0.294052 0.168128
                  }
                }
              }
              JOINT lPinky1
              {
                OFFSET 8.27202 -0.0477905 -0.4584
                CHANNELS 3 Zrotation Xrotation Yrotation
                JOINT lPinky2
                {
                  OFFSET 1.82734 -0.647385 -0.700984
                  CHANNELS 3 Zrotation Xrotation Yrotation
                  End Site
                  {
                    OFFSET 1.69225 -0.51767 -0.607171
                  }
                }
              }
            }
          }
        }
      }
    }
  }
  JOINT rButtock
  {
    OFFSET -8.77824 4.35084 1.2192
    CHANNELS 3 Zrotation Xrotation Yrotation
    JOINT rThigh
    {
      OFFSET 0 -1.70687 -2.19456
      CHANNELS 3 Zrotation Xrotation Yrotation
      JOINT rShin
      {
        OFFSET 0 -36.8199 0.73152
        CHANNELS 3 Zrotation Xrotation Yrotation
        JOINT rFoot
        {
          OFFSET 0.73152 -45.1104 -5.12064
          CHANNELS 3 Zrotation Xrotation Yrotation
          End Site
          {
            OFFSET -1.1221 -3.69964 12.103
          }
        }
      }
    }
  }
  JOINT lButtock
  {
    OFFSET 8.77824 4.35084 1.2192
    CHANNELS 3 Zrotation Xrotation Yrotation
    JOINT lThigh
    {
      OFFSET 0 -1.70687 -2.19456
      CHANNELS 3 Zrotation Xrotation Yrotation
      JOINT lShin
      {
        OFFSET 0 -36.8199 0.73152
        CHANNELS 3 Zrotation Xrotation Yrotation
        JOINT lFoot
        {
          OFFSET -0.73152 -45.1104 -5.12064
          CHANNELS 3 Zrotation Xrotation Yrotation
          End Site
          {
            OFFSET 1.1221 -3.69964 12.103
          }
        }
      }
    }
  }
}
MOTION
Frames:	4
Frame Time:	0.03333
-17.346700000000002 75.83539999999999 -20.1239 -2.123749 -17.744008 3.672388 -3.172909 10.904776 -18.426184 9.257287 -5.346228 4.787203 -16.060183 34.568571 -90.394967 39.446925 17.599741 33.45021 -0.003008 0.0 -0.002702 0.002717 -0.0 -0.00249 -158.493462 -30.405288 166.983984 135.541922 -8.840756 164.375726 -179.175501 11.346611 40.207298 -141.255929 32.808841 125.369973 -162.356975 -0.046801 89.273587 -120.780347 8.523454 56.68377 -126.433425 20.221081 106.43239 -11.800463 30.162892 1.413461 -156.18001 6.377522 140.761033 -6.623409 24.502126 5.867403 -145.114913 -0.28316 -179.040704 10.120612 -1.528523 -9.189407 -148.148046 22.057995 -144.391592 -17.230784 -32.679429 -18.888892 7.157233 28.776561 -8.474354 -64.665089 -7.223934 -76.262689 -174.455837 -39.750354 -72.546247 -152.56122 -37.976624 -138.572071 6.580285 6.34525 -1.364711 -43.935583 -59.824438 12.239629 155.195791 -24.306502 -122.144702 -5.757699 12.268932 7.589289 142.812449 33.277598 -130.626209 10.098888 31.105615 -8.410851 -0.006606 1.14282 -0.360354 -9.789711 5.777683 -0.682296 -127.600815 88.341127 86.929409 -7.549599 18.26629 -3.477399 -0.014155 0.000106 -0.011596 -8.822968 -40.720139 177.405168 -12.284591 -59.157602 -175.659747 -65.786275 10.135747 -5.362227 -0.014155 0.000106 -0.011596 13.102982 -29.933908 -133.482777 -56.347163 -43.124961 -143.627115 -177.359786 -8.944004 78.468227
-17.3459 75.7635 -20.1159 -2.127068 -17.852642 3.657798 -3.170437 10.854008 -17.592326 9.201455 -5.503413 4.118909 -8.587452 41.243031 -149.00679 17.837893 44.230119 90.791879 0.001405 -0.0 -0.000547 0.001405 -0.0 -0.000547 -5.112883 22.67258 6.186328 65.034503 9.707375 -8.282593 -0.166642 9.174158 105.966819 -14.510326 -47.571484 -12.597635 -140.040661 19.462848 82.132137 -70.632458 -5.21681 35.778966 27.946588 -47.785322 -4.629851 137.039569 -62.670587 73.794256 -126.238218 49.463374 115.823212 -168.018604 -19.761141 144.009421 -0.072106 -3.872514 -1.221495 -152.227113 26.004076 167.871701 -145.36625 12.682277 -141.993164 -164.776753 60.878059 -146.151706 -4.164017 -41.90356 8.077189 95.77326 -17.777976 -168.741127 -120.479628 -38.70231 166.228147 112.362189 80.075952 -97.741367 171.4532 -9.136044 -89.951694 130.853382 11.749464 -64.234315 125.510343 21.172175 -105.727855 165.463382 -15.541057 -117.743383 155.250874 8.830163 -140.167672 176.571668 -41.866376 -142.465421 145.006941 7.834351 -178.397962 12.50232 -65.684734 32.941912 129.735624 -22.51259 127.357425 -159.11851 83.210961 117.524808 -0.00343 -0.000297 -0.002877 -9.004856 -40.793546 173.164323 12.053802 -66.397846 106.385448 102.569118 55.251014 -3.261336 0.017773 0.001394 0.013706 11.149791 -29.946922 131.403723 66.258166 -24.371114 116.060893 82.728614 -0.382984 152.278971
-17.3564 75.68820000000001 -20.0909 -2.166705 -17.975537 3.622492 -1.803794 7.270961 -122.23604 0.81163 7.298894 108.122685 1.881233 23.547168 46.425715 -21.963768 -18.781638 -103.00458 -0.003486 0.0 -0.001049 -0.00347 0.0 -0.000609 1.105079 -7.217978 -1.533604 79.058634 39.839737 -39.756527 28.025316 12.501431 104.41478 -19.334713 -16.749386 -3.031902 -173.698127 -11.367769 89.894311 -131.621559 12.687072 65.189401 38.987448 -59.420049 0.348138 -178.224717 -43.443638 106.997932 -169.786397 -35.302157 145.365442 -176.978215 -42.425681 142.384289 -145.019743 -4.688716 -177.649831 -155.203602 2.001982 -179.48967 -153.097143 40.884103 -148.21573 -123.911277 -33.368203 -121.197196 158.90662 -57.943408 -172.846144 -92.169965 30.448487 70.216269 -144.516943 -74.325644 -40.925141 -153.991089 -35.858045 -139.804038 169.675691 -7.358538 -89.931804 170.31957 -8.526664 -88.797389 3.88646 6.025795 -2.329935 -3.634845 9.94842 -1.554468 -5.381351 -16.705709 2.387397 172.670871 -32.794443 -144.00289 145.124005 1.22146 179.512003 -12.007628 37.754253 4.716134 5.133651 -11.833995 4.814661 -23.036344 66.731761 -9.041084 -179.995395 75.747567 -0.004729 171.71439 34.256506 -179.122525 18.782895 -68.596797 89.202494 35.76836 68.383735 70.397965 -0.000271 -0.000717 3.7e-05 12.230402 -30.330339 -179.522665 19.734803 -69.214308 -13.000814 -34.201443 11.992934 -127.506196
-17.3659 75.6088 -20.061899999999998 -2.194331 -18.083907 3.570162 -4.956812 10.57327 28.656223 4.073861 -11.171325 -41.499495 -16.277891 29.493488 -66.330265 38.451327 3.218914 18.384534 0.004309 -0.0 -0.000508 0.004352 0.0 0.000157 -153.782969 6.428993 159.576737 76.302282 -44.246894 105.946165 -71.889441 -47.553437 45.079768 -113.336648 -86.101517 -127.55168 13.383331 -13.330796 -0.503021 -80.736202 31.357515 69.410863 33.726359 -54.57476 -2.401481 76.671286 -59.946091 22.792748 3.052274 -9.275326 -1.513091 11.640535 -25.844514 -1.547806 -145.086238 5.070626 179.276316 10.997646 17.402529 -6.948338 -150.489337 30.70119 -146.295376 -161.662008 53.37896 -146.866141 153.631375 7.19877 -159.386878 -152.392186 -21.423044 143.678521 -159.299195 -20.908519 -68.913418 -160.658214 -23.846721 -145.018593 167.752697 -5.429214 -89.850455 -11.817368 -57.436784 -15.671529 11.982497 16.688089 -7.889651 -176.358717 -38.242225 -104.824426 21.231816 40.222764 -16.322281 1.671492 13.88756 -2.504152 0.016475 4.230904 -1.330384 -10.914085 -48.0207 6.069969 149.010948 25.179511 145.110272 148.771641 14.561495 142.367903 -179.980798 75.749189 -0.013757 172.17037 36.397306 -20.284002 -49.846761 55.224568 -62.123147 176.576366 44.995363 -86.309783 0.000565 2.7e-05 0.001742 11.706109 -30.233597 155.817236 50.970295 -41.48362 167.335018 29.433858 4.499992 81.448403
